<svg width="263" height="89" viewBox="0 0 263 89" fill="none" xmlns="http://www.w3.org/2000/svg">
<rect width="263" height="89" rx="44.5" fill="#FFB2B2"/>
<path d="M67.35 46.05C67.25 46.11 67.25 46.17 67.35 46.23C68.43 46.67 69.25 47.32 69.81 48.18C70.37 49.04 70.65 50.08 70.65 51.3C70.65 53.1 70.07 54.5 68.91 55.5C67.77 56.5 66.26 57 64.38 57H57.12C56.92 57 56.82 56.9 56.82 56.7V36.3C56.82 36.1 56.92 36 57.12 36H64.17C66.11 36 67.63 36.48 68.73 37.44C69.85 38.4 70.41 39.75 70.41 41.49C70.41 42.59 70.14 43.53 69.6 44.31C69.08 45.07 68.33 45.65 67.35 46.05ZM59.07 37.86C58.99 37.86 58.95 37.9 58.95 37.98V45.18C58.95 45.26 58.99 45.3 59.07 45.3H64.17C65.43 45.3 66.43 44.97 67.17 44.31C67.93 43.65 68.31 42.77 68.31 41.67C68.31 40.51 67.93 39.59 67.17 38.91C66.43 38.21 65.43 37.86 64.17 37.86H59.07ZM64.38 55.11C65.64 55.11 66.64 54.75 67.38 54.03C68.14 53.31 68.52 52.34 68.52 51.12C68.52 49.9 68.13 48.93 67.35 48.21C66.59 47.47 65.56 47.1 64.26 47.1H59.07C58.99 47.1 58.95 47.14 58.95 47.22V54.99C58.95 55.07 58.99 55.11 59.07 55.11H64.38ZM80.2828 41.58C82.0828 41.58 83.4728 42.04 84.4528 42.96C85.4328 43.88 85.9228 45.1 85.9228 46.62V56.7C85.9228 56.9 85.8228 57 85.6228 57H84.0928C83.8928 57 83.7928 56.9 83.7928 56.7V55.47C83.7928 55.43 83.7728 55.4 83.7328 55.38C83.7128 55.36 83.6828 55.37 83.6428 55.41C83.1428 56.01 82.4928 56.47 81.6928 56.79C80.8928 57.09 80.0028 57.24 79.0228 57.24C77.6028 57.24 76.4128 56.88 75.4528 56.16C74.4928 55.44 74.0128 54.34 74.0128 52.86C74.0128 51.36 74.5528 50.18 75.6328 49.32C76.7328 48.44 78.2528 48 80.1928 48H83.6728C83.7528 48 83.7928 47.96 83.7928 47.88V46.74C83.7928 45.72 83.5028 44.92 82.9228 44.34C82.3628 43.74 81.4828 43.44 80.2828 43.44C79.3228 43.44 78.5428 43.63 77.9428 44.01C77.3428 44.37 76.9728 44.88 76.8328 45.54C76.7728 45.74 76.6528 45.83 76.4728 45.81L74.8528 45.6C74.6328 45.56 74.5428 45.48 74.5828 45.36C74.7428 44.24 75.3428 43.33 76.3828 42.63C77.4228 41.93 78.7228 41.58 80.2828 41.58ZM79.4428 55.41C80.6228 55.41 81.6428 55.12 82.5028 54.54C83.3628 53.94 83.7928 53.14 83.7928 52.14V49.8C83.7928 49.72 83.7528 49.68 83.6728 49.68H80.5228C79.2028 49.68 78.1428 49.95 77.3428 50.49C76.5428 51.03 76.1428 51.78 76.1428 52.74C76.1428 53.62 76.4428 54.29 77.0428 54.75C77.6628 55.19 78.4628 55.41 79.4428 55.41ZM96.0851 57.24C94.6451 57.24 93.4051 56.87 92.3651 56.13C91.3451 55.37 90.6451 54.35 90.2651 53.07C90.0051 52.19 89.8751 50.95 89.8751 49.35C89.8751 47.91 90.0051 46.69 90.2651 45.69C90.6251 44.45 91.3251 43.46 92.3651 42.72C93.4051 41.96 94.6451 41.58 96.0851 41.58C97.5451 41.58 98.8051 41.95 99.8651 42.69C100.945 43.43 101.645 44.35 101.965 45.45C102.065 45.81 102.125 46.11 102.145 46.35V46.41C102.145 46.55 102.055 46.64 101.875 46.68L100.375 46.89H100.315C100.175 46.89 100.085 46.8 100.045 46.62L99.9551 46.17C99.7751 45.41 99.3351 44.77 98.6351 44.25C97.9351 43.71 97.0851 43.44 96.0851 43.44C95.0851 43.44 94.2451 43.71 93.5651 44.25C92.9051 44.77 92.4751 45.47 92.2751 46.35C92.0951 47.11 92.0051 48.12 92.0051 49.38C92.0051 50.7 92.0951 51.72 92.2751 52.44C92.4751 53.34 92.9051 54.06 93.5651 54.6C94.2451 55.12 95.0851 55.38 96.0851 55.38C97.0651 55.38 97.9051 55.13 98.6051 54.63C99.3251 54.11 99.7751 53.45 99.9551 52.65V52.53L99.9851 52.41C100.005 52.21 100.125 52.13 100.345 52.17L101.815 52.41C102.015 52.45 102.105 52.56 102.085 52.74L101.965 53.34C101.665 54.5 100.975 55.44 99.8951 56.16C98.8151 56.88 97.5451 57.24 96.0851 57.24ZM106.241 57C106.041 57 105.941 56.9 105.941 56.7V36.3C105.941 36.1 106.041 36 106.241 36H107.771C107.971 36 108.071 36.1 108.071 36.3V48.57C108.071 48.61 108.081 48.64 108.101 48.66C108.141 48.68 108.181 48.67 108.221 48.63L114.581 41.97C114.681 41.87 114.801 41.82 114.941 41.82H116.741C116.861 41.82 116.941 41.86 116.981 41.94C117.021 42.02 117.001 42.1 116.921 42.18L113.081 46.44C113.041 46.48 113.031 46.53 113.051 46.59L117.641 56.64L117.671 56.76C117.671 56.92 117.581 57 117.401 57H115.781C115.621 57 115.511 56.92 115.451 56.76L111.581 48C111.541 47.92 111.491 47.91 111.431 47.97L108.131 51.45C108.091 51.49 108.071 51.54 108.071 51.6V56.7C108.071 56.9 107.971 57 107.771 57H106.241ZM129.92 42.12C129.92 41.92 130.02 41.82 130.22 41.82H131.75C131.95 41.82 132.05 41.92 132.05 42.12V56.49C132.05 58.73 131.4 60.37 130.1 61.41C128.82 62.45 127.05 62.97 124.79 62.97C124.33 62.97 123.98 62.96 123.74 62.94C123.54 62.92 123.44 62.81 123.44 62.61L123.5 61.23C123.5 61.13 123.53 61.05 123.59 60.99C123.65 60.95 123.72 60.94 123.8 60.96L124.61 60.99C126.47 60.99 127.82 60.62 128.66 59.88C129.5 59.16 129.92 58.01 129.92 56.43V55.32C129.92 55.28 129.9 55.26 129.86 55.26C129.84 55.24 129.81 55.25 129.77 55.29C128.85 56.49 127.54 57.09 125.84 57.09C124.54 57.09 123.38 56.74 122.36 56.04C121.36 55.34 120.69 54.35 120.35 53.07C120.11 52.25 119.99 51.03 119.99 49.41C119.99 48.53 120.01 47.79 120.05 47.19C120.11 46.59 120.22 46.05 120.38 45.57C120.74 44.37 121.39 43.41 122.33 42.69C123.27 41.95 124.4 41.58 125.72 41.58C127.5 41.58 128.85 42.17 129.77 43.35C129.81 43.39 129.84 43.4 129.86 43.38C129.9 43.36 129.92 43.33 129.92 43.29V42.12ZM129.77 52.41C129.83 52.11 129.87 51.74 129.89 51.3C129.91 50.86 129.92 50.22 129.92 49.38C129.92 48.36 129.91 47.68 129.89 47.34C129.87 46.98 129.82 46.65 129.74 46.35C129.58 45.51 129.18 44.82 128.54 44.28C127.92 43.72 127.13 43.44 126.17 43.44C125.23 43.44 124.43 43.71 123.77 44.25C123.13 44.79 122.68 45.49 122.42 46.35C122.22 46.99 122.12 47.99 122.12 49.35C122.12 50.81 122.22 51.82 122.42 52.38C122.62 53.22 123.05 53.92 123.71 54.48C124.39 55.02 125.21 55.29 126.17 55.29C127.15 55.29 127.95 55.02 128.57 54.48C129.21 53.94 129.61 53.25 129.77 52.41ZM142.735 41.67C143.395 41.67 143.965 41.8 144.445 42.06C144.605 42.14 144.665 42.27 144.625 42.45L144.295 43.92C144.235 44.12 144.105 44.18 143.905 44.1C143.565 43.96 143.175 43.89 142.735 43.89L142.345 43.92C141.305 43.96 140.445 44.35 139.765 45.09C139.085 45.81 138.745 46.73 138.745 47.85V56.7C138.745 56.9 138.645 57 138.445 57H136.915C136.715 57 136.615 56.9 136.615 56.7V42.12C136.615 41.92 136.715 41.82 136.915 41.82H138.445C138.645 41.82 138.745 41.92 138.745 42.12V43.95C138.745 44.01 138.755 44.05 138.775 44.07C138.815 44.07 138.845 44.05 138.865 44.01C139.285 43.27 139.815 42.7 140.455 42.3C141.115 41.88 141.875 41.67 142.735 41.67ZM153.186 57.24C151.746 57.24 150.506 56.87 149.466 56.13C148.426 55.39 147.706 54.37 147.306 53.07C147.026 52.15 146.886 50.92 146.886 49.38C146.886 47.84 147.026 46.62 147.306 45.72C147.686 44.44 148.396 43.43 149.436 42.69C150.476 41.95 151.736 41.58 153.216 41.58C154.636 41.58 155.856 41.95 156.876 42.69C157.916 43.43 158.626 44.43 159.006 45.69C159.286 46.55 159.426 47.78 159.426 49.38C159.426 51 159.286 52.23 159.006 53.07C158.626 54.37 157.916 55.39 156.876 56.13C155.856 56.87 154.626 57.24 153.186 57.24ZM153.186 55.38C154.146 55.38 154.966 55.12 155.646 54.6C156.326 54.06 156.786 53.34 157.026 52.44C157.206 51.72 157.296 50.71 157.296 49.41C157.296 48.09 157.216 47.08 157.056 46.38C156.816 45.48 156.346 44.77 155.646 44.25C154.966 43.71 154.136 43.44 153.156 43.44C152.176 43.44 151.346 43.71 150.666 44.25C149.986 44.77 149.526 45.48 149.286 46.38C149.126 47.08 149.046 48.09 149.046 49.41C149.046 50.73 149.126 51.74 149.286 52.44C149.506 53.34 149.956 54.06 150.636 54.6C151.336 55.12 152.186 55.38 153.186 55.38ZM172.924 42.12C172.924 41.92 173.024 41.82 173.224 41.82H174.754C174.954 41.82 175.054 41.92 175.054 42.12V56.7C175.054 56.9 174.954 57 174.754 57H173.224C173.024 57 172.924 56.9 172.924 56.7V55.41C172.924 55.37 172.904 55.34 172.864 55.32C172.824 55.3 172.794 55.31 172.774 55.35C171.934 56.59 170.604 57.21 168.784 57.21C167.824 57.21 166.934 57.02 166.114 56.64C165.314 56.24 164.674 55.67 164.194 54.93C163.734 54.19 163.504 53.3 163.504 52.26V42.12C163.504 41.92 163.604 41.82 163.804 41.82H165.334C165.534 41.82 165.634 41.92 165.634 42.12V51.63C165.634 52.77 165.954 53.68 166.594 54.36C167.234 55.02 168.104 55.35 169.204 55.35C170.344 55.35 171.244 55.01 171.904 54.33C172.584 53.65 172.924 52.75 172.924 51.63V42.12ZM186.128 41.61C187.728 41.61 188.998 42.08 189.938 43.02C190.898 43.96 191.378 45.22 191.378 46.8V56.7C191.378 56.9 191.278 57 191.078 57H189.548C189.348 57 189.248 56.9 189.248 56.7V47.22C189.248 46.12 188.908 45.22 188.228 44.52C187.568 43.82 186.708 43.47 185.648 43.47C184.548 43.47 183.658 43.81 182.978 44.49C182.298 45.17 181.958 46.06 181.958 47.16V56.7C181.958 56.9 181.858 57 181.658 57H180.128C179.928 57 179.828 56.9 179.828 56.7V42.12C179.828 41.92 179.928 41.82 180.128 41.82H181.658C181.858 41.82 181.958 41.92 181.958 42.12V43.41C181.958 43.45 181.968 43.48 181.988 43.5C182.028 43.52 182.058 43.51 182.078 43.47C182.958 42.23 184.308 41.61 186.128 41.61ZM205.215 36.3C205.215 36.1 205.315 36 205.515 36H207.045C207.245 36 207.345 36.1 207.345 36.3V56.7C207.345 56.9 207.245 57 207.045 57H205.515C205.315 57 205.215 56.9 205.215 56.7V55.44C205.215 55.4 205.195 55.38 205.155 55.38C205.135 55.36 205.105 55.37 205.065 55.41C204.625 55.99 204.075 56.44 203.415 56.76C202.775 57.08 202.055 57.24 201.255 57.24C199.855 57.24 198.675 56.88 197.715 56.16C196.775 55.44 196.125 54.46 195.765 53.22C195.485 52.32 195.345 51.05 195.345 49.41C195.345 47.75 195.465 46.51 195.705 45.69C196.065 44.41 196.725 43.41 197.685 42.69C198.645 41.95 199.835 41.58 201.255 41.58C202.035 41.58 202.755 41.74 203.415 42.06C204.075 42.36 204.625 42.8 205.065 43.38C205.105 43.42 205.135 43.44 205.155 43.44C205.195 43.42 205.215 43.39 205.215 43.35V36.3ZM204.675 53.07C204.855 52.67 204.985 52.2 205.065 51.66C205.145 51.12 205.185 50.37 205.185 49.41C205.185 48.45 205.145 47.7 205.065 47.16C204.985 46.6 204.845 46.11 204.645 45.69C204.405 45.01 204.005 44.47 203.445 44.07C202.905 43.65 202.255 43.44 201.495 43.44C200.695 43.44 200.005 43.64 199.425 44.04C198.845 44.44 198.425 44.97 198.165 45.63C197.925 46.07 197.745 46.57 197.625 47.13C197.525 47.67 197.475 48.43 197.475 49.41C197.475 50.35 197.515 51.09 197.595 51.63C197.675 52.15 197.815 52.62 198.015 53.04C198.255 53.76 198.675 54.33 199.275 54.75C199.895 55.17 200.625 55.38 201.465 55.38C202.265 55.38 202.935 55.17 203.475 54.75C204.015 54.33 204.415 53.77 204.675 53.07Z" fill="black"/>
</svg>
